<svg width="12" height="17" viewBox="0 0 12 17" fill="none" xmlns="http://www.w3.org/2000/svg">
<path d="M11.2394 6.11968C11.2394 10.1695 8.0358 14.2194 6.69692 15.7351C6.38496 16.0883 5.85439 16.0883 5.54244 15.7351C4.20359 14.2194 1 10.1695 1 6.11968C1 4.41312 2.27992 1 6.11968 1C9.95944 1 11.2394 4.41312 11.2394 6.11968Z" stroke="black" stroke-linejoin="round"/>
<path d="M6.11968 7.82624C7.06218 7.82624 7.82624 7.06219 7.82624 6.11968C7.82624 5.17717 7.06218 4.41312 6.11968 4.41312C5.17717 4.41312 4.41312 5.17717 4.41312 6.11968C4.41312 7.06219 5.17717 7.82624 6.11968 7.82624Z" stroke="black" stroke-linejoin="round"/>
</svg>
