<svg width="17" height="17" viewBox="0 0 17 17" fill="none" xmlns="http://www.w3.org/2000/svg">
<path d="M1.08052 4.6203C0.583277 7.00073 2.45763 9.83437 4.81163 12.1883C7.16567 14.5424 9.99923 16.4167 12.3797 15.9195C14.3374 15.5105 15.3368 14.4677 15.8993 13.5792C16.0934 13.2725 15.9954 12.8745 15.7045 12.6576L12.9499 10.6029C12.6529 10.3813 12.2382 10.4113 11.9763 10.6734L10.5141 12.1354C10.5141 12.1354 9.09293 11.6734 7.20969 9.79027C5.32653 7.9071 4.86455 6.48588 4.86455 6.48588L6.32666 5.02377C6.58869 4.76174 6.6187 4.34712 6.39714 4.05009L4.34243 1.29547C4.12547 1.0046 3.72748 0.906638 3.42086 1.10072C2.53227 1.66318 1.48945 2.66262 1.08052 4.6203Z" stroke="black" stroke-linecap="round" stroke-linejoin="round"/>
</svg>
