<?xml version="1.0" encoding="utf-8"?><svg xmlns="http://www.w3.org/2000/svg" xmlns:xlink="http://www.w3.org/1999/xlink"><symbol id="Telegram" viewBox="0 0 215 215" xmlns="http://www.w3.org/2000/svg"><defs><style>.pcls-1{fill:url(#pБезымянный_градиент_2);}.pcls-2{fill:#fff;fill-rule:evenodd;}</style><linearGradient id="pБезымянный_градиент_2" y1="107.5" x2="215" y2="107.5" gradientUnits="userSpaceOnUse"><stop offset="0" stop-color="#2aabee"/><stop offset="1" stop-color="#229ed9"/></linearGradient></defs><g id="pTelegram"><circle id="pBackground" class="pcls-1" cx="107.5" cy="107.5" r="107.5"/><path id="pTelegram-2" data-name="Telegram" class="pcls-2" d="M603.31,105.65q46.89-20.43,62.53-26.94c29.78-12.38,36-14.53,40-14.61A7.09,7.09,0,0,1,710,65.35a4.49,4.49,0,0,1,1.53,2.9,19.25,19.25,0,0,1,.18,4.23c-1.61,17-8.6,58.09-12.15,77.08-1.5,8-4.46,10.73-7.33,11-6.22.57-11-4.12-17-8.07-9.44-6.19-14.77-10-23.93-16.08-10.59-7-3.72-10.81,2.31-17.07,1.58-1.64,29-26.6,29.54-28.86a2.18,2.18,0,0,0-.5-1.9,2.49,2.49,0,0,0-2.22-.21q-1.41.31-45.22,29.89-6.42,4.41-11.63,4.3c-3.83-.09-11.19-2.17-16.67-4-6.71-2.18-12-3.33-11.58-7Q595.7,108.68,603.31,105.65Z" transform="translate(-554)"/></g></symbol><symbol id="VK" viewBox="0 0 215 215" xmlns="http://www.w3.org/2000/svg"><defs><style>.rcls-1{fill:#07f;}.rcls-2{fill:#fff;}</style></defs><g id="rVK"><circle id="rBackground" class="rcls-1" cx="107.5" cy="107.5" r="107.5"/><path id="rVK-2" data-name="VK" class="rcls-2" d="M111.44,147.14C69.76,147.14,46,118.56,45,71H65.87c.69,34.9,16.08,49.69,28.27,52.74V71h19.67v30.1c12-1.29,24.69-15,28.95-30.1h19.67c-3.28,18.59-17,32.31-26.75,37.95A60.16,60.16,0,0,1,167,147.14H145.36c-4.65-14.48-16.24-25.68-31.55-27.2v27.2Z"/></g></symbol><symbol id="Viber" viewBox="0 0 215 215" xmlns="http://www.w3.org/2000/svg"><defs><style>.qcls-1{fill:#7360f2;}.qcls-2{fill:#fff;}</style></defs><g id="qViber"><circle id="qBackground" class="qcls-1" cx="107.5" cy="107.5" r="107.5"/><g id="qViber-2" data-name="Viber"><path class="qcls-2" d="M148.37,343.83c-2.75-2.55-13.9-10.64-38.73-10.75,0,0-29.28-1.77-43.55,11.33-8,7.94-10.74,19.57-11,34s-.68,41.43,25.37,48.76h0v11.18s-.17,4.52,2.81,5.45c3.6,1.11,5.72-2.33,9.16-6,1.89-2,4.5-5,6.46-7.31,17.82,1.5,31.51-1.93,33.07-2.44,3.6-1.16,23.95-3.77,27.26-30.79C162.6,369.38,157.53,351.77,148.37,343.83Zm3,51.4c-2.79,22.55-19.3,24-22.34,24.95a92.89,92.89,0,0,1-28.46,2.42S89.32,436.2,85.8,439.74a1.89,1.89,0,0,1-1.63.66c-.6-.15-.77-.86-.76-1.91,0-1.5.09-18.58.09-18.58h0c-22-6.12-20.74-29.11-20.49-41.15s2.51-21.91,9.23-28.54c12.07-10.94,36.94-9.3,36.94-9.3,21,.09,31.07,6.41,33.4,8.53,7.75,6.64,11.7,22.51,8.81,45.77Z" transform="translate(0 -277)"/><path id="qViber-3" data-name="Viber" class="qcls-2" d="M119.86,379.17a1.4,1.4,0,0,1-1.4-1.33c-.24-4.77-2.48-7.11-7.06-7.35a1.4,1.4,0,0,1,.14-2.8c6,.32,9.41,3.78,9.72,10a1.41,1.41,0,0,1-1.33,1.47Z" transform="translate(0 -277)"/><path id="qViber-4" data-name="Viber" class="qcls-2" d="M127.06,381.59h0a1.41,1.41,0,0,1-1.37-1.44,16.27,16.27,0,0,0-4.19-11.88c-2.92-3.19-6.92-4.92-12.23-5.31a1.4,1.4,0,1,1,.2-2.8c6,.43,10.72,2.53,14.1,6.22a19.13,19.13,0,0,1,4.93,13.83A1.41,1.41,0,0,1,127.06,381.59Z" transform="translate(0 -277)"/><path id="qViber-5" data-name="Viber" class="qcls-2" d="M134.44,384.47a1.4,1.4,0,0,1-1.4-1.39c-.07-8.47-2.61-15.21-7.56-20a26,26,0,0,0-18.63-7.36,1.41,1.41,0,0,1,0-2.81h0A28.71,28.71,0,0,1,127.44,361c5.51,5.37,8.33,12.78,8.4,22a1.39,1.39,0,0,1-1.39,1.41Z" transform="translate(0 -277)"/><path id="qViber-6" data-name="Viber" class="qcls-2" d="M111.75,396.58a3.86,3.86,0,0,0,3-1.15l2.08-2.6a4.53,4.53,0,0,1,5.77-.8,59,59,0,0,1,5.15,3.28c1.56,1.16,4.77,3.83,4.78,3.83a4,4,0,0,1,.85,5.19v0a21.69,21.69,0,0,1-4.32,5.31l0,0a8.55,8.55,0,0,1-4.38,2.12,2.76,2.76,0,0,1-.64,0,5.88,5.88,0,0,1-1.86-.29l0-.07c-2.21-.62-5.9-2.18-12-5.57A70.72,70.72,0,0,1,100,399.26a51.18,51.18,0,0,1-4.55-4l-.16-.15-.15-.16h0l-.15-.15-.16-.15a54.36,54.36,0,0,1-4-4.55A71.67,71.67,0,0,1,84.09,380c-3.39-6.14-5-9.82-5.57-12l-.07,0a5.87,5.87,0,0,1-.28-1.86,2.72,2.72,0,0,1,0-.64A8.7,8.7,0,0,1,80.32,361s0,0,0,0a21.65,21.65,0,0,1,5.31-4.32h0a4,4,0,0,1,5.18.84s2.68,3.22,3.83,4.78S97,365.63,98,367.4a4.55,4.55,0,0,1-.8,5.77l-2.61,2.07a3.86,3.86,0,0,0-1.14,3S97.32,392.89,111.75,396.58Z" transform="translate(0 -277)"/></g></g></symbol><symbol id="WhatsApp" viewBox="0 0 215 215" xmlns="http://www.w3.org/2000/svg"><defs><style>.scls-1{fill:#25d366;}.scls-2,.scls-3{fill:#fff;}.scls-3{fill-rule:evenodd;}</style></defs><g id="sWhatsApp"><circle id="sBackground" class="scls-1" cx="107.5" cy="107.5" r="107.5"/><g id="sWhatsApp-2" data-name="WhatsApp"><path id="sWhatsApp-3" data-name="WhatsApp" class="scls-2" d="M885.91,161l7.55-27.56a53.18,53.18,0,1,1,46.09,26.64h0a53.18,53.18,0,0,1-25.41-6.48Zm29.5-17,1.62,1a44.21,44.21,0,0,0,22.5,6.17h0a44.22,44.22,0,1,0-37.45-20.72l1,1.67-4.47,16.31Z" transform="translate(-831)"/><path id="sWhatsApp-4" data-name="WhatsApp" class="scls-3" d="M966.34,119.54c-.33-.56-1.22-.89-2.55-1.55s-7.86-3.88-9.08-4.33-2.1-.66-3,.67-3.43,4.32-4.2,5.21-1.56,1-2.88.33A36.31,36.31,0,0,1,934,113.28a40,40,0,0,1-7.39-9.21c-.78-1.33-.09-2,.58-2.71s1.33-1.56,2-2.33a8.84,8.84,0,0,0,1.33-2.22,2.47,2.47,0,0,0-.11-2.33c-.33-.66-3-7.2-4.1-9.86s-2.17-2.24-3-2.29-1.66,0-2.54,0A4.89,4.89,0,0,0,917.17,84,14.91,14.91,0,0,0,912.52,95c0,6.54,4.76,12.86,5.43,13.75s9.37,14.31,22.7,20.06a75.55,75.55,0,0,0,7.58,2.8,18.27,18.27,0,0,0,8.37.53c2.55-.38,7.86-3.22,9-6.32S966.67,120.09,966.34,119.54Z" transform="translate(-831)"/></g></g></symbol><symbol viewBox="0 0 19 17" id="arrow-right" xmlns="http://www.w3.org/2000/svg"><path d="M1 8.08341L18 8.08341M18 8.08341L10.9167 1.00008M18 8.08341L10.9167 15.1667" stroke-width="2" stroke-linecap="round" stroke-linejoin="round"/></symbol><symbol viewBox="0 0 7 12" id="arrow-sub" xmlns="http://www.w3.org/2000/svg"><path d="M1 1L6 6L1 11" stroke-linecap="round" stroke-linejoin="round"/></symbol><symbol viewBox="0 0 24 24" id="burger" xmlns="http://www.w3.org/2000/svg"><rect width="24" height="24"/><path d="M6 12H18" stroke-linecap="round" stroke-linejoin="round"/><path d="M6 15.5H18" stroke-linecap="round" stroke-linejoin="round"/><path d="M6 8.5H18" stroke-linecap="round" stroke-linejoin="round"/></symbol><symbol viewBox="0 0 22 22" id="clock" xmlns="http://www.w3.org/2000/svg"><path d="M11 21C16.5228 21 21 16.5228 21 11C21 5.47715 16.5228 1 11 1C5.47715 1 1 5.47715 1 11C1 16.5228 5.47715 21 11 21Z" stroke-linecap="round" stroke-linejoin="round"/><path d="M11 4.3335V11.0002L6 16.0002" stroke-linecap="round" stroke-linejoin="round"/></symbol><symbol viewBox="0 0 24 24" id="heart" xmlns="http://www.w3.org/2000/svg"><rect width="24" height="24"/><path d="M21 8.99998C21 12.7539 15.7156 17.9757 12.5857 20.5327C12.2416 20.8137 11.7516 20.8225 11.399 20.5523C8.26723 18.1523 3 13.1225 3 8.99998C3 2.00001 12 2.00002 12 8C12 2.00001 21 1.99999 21 8.99998Z" stroke-linecap="round" stroke-linejoin="round"/></symbol><symbol viewBox="0 0 12 17" id="location" xmlns="http://www.w3.org/2000/svg"><path d="M11.2394 6.11968C11.2394 10.1695 8.0358 14.2194 6.69692 15.7351C6.38496 16.0883 5.85439 16.0883 5.54244 15.7351C4.20359 14.2194 1 10.1695 1 6.11968C1 4.41312 2.27992 1 6.11968 1C9.95944 1 11.2394 4.41312 11.2394 6.11968Z" stroke-linejoin="round"/><path d="M6.11968 7.82624C7.06218 7.82624 7.82624 7.06219 7.82624 6.11968C7.82624 5.17717 7.06218 4.41312 6.11968 4.41312C5.17717 4.41312 4.41312 5.17717 4.41312 6.11968C4.41312 7.06219 5.17717 7.82624 6.11968 7.82624Z" stroke-linejoin="round"/></symbol><symbol viewBox="0 0 22 16" id="message" xmlns="http://www.w3.org/2000/svg"><path d="M1 14.3333V2.11111C1 1.49747 1.49747 1 2.11111 1H11H19.8889C20.5026 1 21 1.49747 21 2.11111V14.3333C21 14.947 20.5026 15.4444 19.8889 15.4444H2.11111C1.49747 15.4444 1 14.947 1 14.3333Z" stroke-linejoin="round"/><path d="M1 1.55518L11 8.22184L21 1.55518" stroke-linejoin="round"/></symbol><symbol viewBox="0 0 17 17" id="phone" xmlns="http://www.w3.org/2000/svg"><path d="M1.08052 4.6203C0.583277 7.00073 2.45763 9.83437 4.81163 12.1883C7.16567 14.5424 9.99923 16.4167 12.3797 15.9195C14.3374 15.5105 15.3368 14.4677 15.8993 13.5792C16.0934 13.2725 15.9954 12.8745 15.7045 12.6576L12.9499 10.6029C12.6529 10.3813 12.2382 10.4113 11.9763 10.6734L10.5141 12.1354C10.5141 12.1354 9.09293 11.6734 7.20969 9.79027C5.32653 7.9071 4.86455 6.48588 4.86455 6.48588L6.32666 5.02377C6.58869 4.76174 6.6187 4.34712 6.39714 4.05009L4.34243 1.29547C4.12547 1.0046 3.72748 0.906638 3.42086 1.10072C2.53227 1.66318 1.48945 2.66262 1.08052 4.6203Z" stroke-linecap="round" stroke-linejoin="round"/></symbol><symbol viewBox="0 0 24 24" id="profile" xmlns="http://www.w3.org/2000/svg"><g clip-path="url(#iclip0_15_82)"><rect width="24" height="24"/><g filter="url(#ifilter0_d_15_82)"><path d="M14.3365 12.3466L14.0765 11.9195C13.9082 12.022 13.8158 12.2137 13.8405 12.4092C13.8651 12.6046 14.0022 12.7674 14.1907 12.8249L14.3365 12.3466ZM9.6634 12.3466L9.80923 12.8249C9.99769 12.7674 10.1348 12.6046 10.1595 12.4092C10.1841 12.2137 10.0917 12.022 9.92339 11.9195L9.6634 12.3466ZM4.06161 19.002L3.56544 18.9402L4.06161 19.002ZM19.9383 19.002L20.4345 18.9402L19.9383 19.002ZM16 8.5C16 9.94799 15.2309 11.2168 14.0765 11.9195L14.5965 12.7737C16.0365 11.8971 17 10.3113 17 8.5H16ZM12 4.5C14.2091 4.5 16 6.29086 16 8.5H17C17 5.73858 14.7614 3.5 12 3.5V4.5ZM7.99996 8.5C7.99996 6.29086 9.79082 4.5 12 4.5V3.5C9.23854 3.5 6.99996 5.73858 6.99996 8.5H7.99996ZM9.92339 11.9195C8.76904 11.2168 7.99996 9.948 7.99996 8.5H6.99996C6.99996 10.3113 7.96342 11.8971 9.40342 12.7737L9.92339 11.9195ZM9.51758 11.8683C6.36083 12.8309 3.98356 15.5804 3.56544 18.9402L4.55778 19.0637C4.92638 16.1018 7.02381 13.6742 9.80923 12.8249L9.51758 11.8683ZM3.56544 18.9402C3.45493 19.8282 4.19055 20.5 4.99996 20.5V19.5C4.70481 19.5 4.53188 19.2719 4.55778 19.0637L3.56544 18.9402ZM4.99996 20.5H19V19.5H4.99996V20.5ZM19 20.5C19.8094 20.5 20.545 19.8282 20.4345 18.9402L19.4421 19.0637C19.468 19.2719 19.2951 19.5 19 19.5V20.5ZM20.4345 18.9402C20.0164 15.5804 17.6391 12.8309 14.4823 11.8683L14.1907 12.8249C16.9761 13.6742 19.0735 16.1018 19.4421 19.0637L20.4345 18.9402Z"/></g></g><defs><filter id="ifilter0_d_15_82" x="2.55444" y="3.5" width="18.8911" height="19" filterUnits="userSpaceOnUse" color-interpolation-filters="sRGB"><feFlood flood-opacity="0" result="BackgroundImageFix"/><feColorMatrix in="SourceAlpha" type="matrix" values="0 0 0 0 0 0 0 0 0 0 0 0 0 0 0 0 0 0 127 0" result="hardAlpha"/><feOffset dy="1"/><feGaussianBlur stdDeviation="0.5"/><feColorMatrix type="matrix" values="0 0 0 0 0 0 0 0 0 0 0 0 0 0 0 0 0 0 0.1 0"/><feBlend mode="normal" in2="BackgroundImageFix" result="effect1_dropShadow_15_82"/><feBlend mode="normal" in="SourceGraphic" in2="effect1_dropShadow_15_82" result="shape"/></filter><clipPath id="iclip0_15_82"><rect width="24" height="24"/></clipPath></defs></symbol><symbol viewBox="0 0 24 24" id="search" xmlns="http://www.w3.org/2000/svg"><g clip-path="url(#jclip0_15_152)"><rect width="24" height="24"/><circle cx="10.5" cy="10.5" r="6.5" stroke-linejoin="round"/><path d="M19.6464 20.3536C19.8417 20.5488 20.1583 20.5488 20.3536 20.3536C20.5488 20.1583 20.5488 19.8417 20.3536 19.6464L19.6464 20.3536ZM20.3536 19.6464L15.3536 14.6464L14.6464 15.3536L19.6464 20.3536L20.3536 19.6464Z"/></g><defs><clipPath id="jclip0_15_152"><rect width="24" height="24"/></clipPath></defs></symbol><symbol viewBox="0 0 24 24" id="selection" xmlns="http://www.w3.org/2000/svg"><rect width="24" height="24"/><path d="M7 13.4545L9.66667 16L17 9" stroke-linecap="round" stroke-linejoin="round"/><rect x="4" y="4" width="16" height="16" rx="2" stroke-linecap="round" stroke-linejoin="round"/></symbol><symbol viewBox="0 0 24 24" id="selection-circle" xmlns="http://www.w3.org/2000/svg"><rect width="24" height="24"/><path d="M7 13.4545L8.97619 15.3409C9.36262 15.7098 9.97072 15.7098 10.3571 15.3409L17 9" stroke-linecap="round" stroke-linejoin="round"/><circle cx="12" cy="12" r="9" stroke-linecap="round" stroke-linejoin="round"/></symbol><symbol viewBox="0 0 24 24" id="settings" xmlns="http://www.w3.org/2000/svg"><rect width="24" height="24"/><path d="M13.5 2L13.9961 1.93798C13.9649 1.68777 13.7522 1.5 13.5 1.5V2ZM10.5 2V1.5C10.2478 1.5 10.0351 1.68777 10.0039 1.93798L10.5 2ZM13.7747 4.19754L13.2786 4.25955C13.3047 4.46849 13.4589 4.63867 13.6642 4.68519L13.7747 4.19754ZM16.2617 5.22838L15.995 5.6513C16.1731 5.76362 16.4024 5.75233 16.5687 5.62306L16.2617 5.22838ZM18.0104 3.86826L18.364 3.51471C18.1857 3.3364 17.9025 3.31877 17.7034 3.47359L18.0104 3.86826ZM20.1317 5.98958L20.5264 6.29655C20.6812 6.09751 20.6636 5.81434 20.4853 5.63603L20.1317 5.98958ZM18.7716 7.73831L18.3769 7.43134C18.2477 7.59754 18.2364 7.82693 18.3487 8.00503L18.7716 7.73831ZM19.8025 10.2253L19.3148 10.3358C19.3613 10.5411 19.5315 10.6953 19.7404 10.7214L19.8025 10.2253ZM22 10.5H22.5C22.5 10.2478 22.3122 10.0351 22.062 10.0039L22 10.5ZM22 13.5L22.062 13.9961C22.3122 13.9649 22.5 13.7522 22.5 13.5H22ZM19.8025 13.7747L19.7404 13.2786C19.5315 13.3047 19.3613 13.4589 19.3148 13.6642L19.8025 13.7747ZM18.7716 16.2617L18.3487 15.995C18.2364 16.1731 18.2477 16.4025 18.3769 16.5687L18.7716 16.2617ZM20.1317 18.0104L20.4853 18.364C20.6636 18.1857 20.6812 17.9025 20.5264 17.7034L20.1317 18.0104ZM18.0104 20.1317L17.7034 20.5264C17.9025 20.6812 18.1857 20.6636 18.364 20.4853L18.0104 20.1317ZM16.2617 18.7716L16.5687 18.3769C16.4024 18.2477 16.1731 18.2364 15.995 18.3487L16.2617 18.7716ZM13.7747 19.8025L13.6642 19.3148C13.4589 19.3613 13.3047 19.5315 13.2786 19.7404L13.7747 19.8025ZM13.5 22V22.5C13.7522 22.5 13.9649 22.3122 13.9961 22.062L13.5 22ZM10.5 22L10.0039 22.062C10.0351 22.3122 10.2478 22.5 10.5 22.5V22ZM10.2253 19.8025L10.7214 19.7404C10.6953 19.5315 10.5411 19.3613 10.3358 19.3148L10.2253 19.8025ZM7.73832 18.7716L8.00504 18.3487C7.82694 18.2364 7.59756 18.2477 7.43135 18.3769L7.73832 18.7716ZM5.98959 20.1317L5.63604 20.4853C5.81435 20.6636 6.09752 20.6812 6.29656 20.5264L5.98959 20.1317ZM3.86827 18.0104L3.4736 17.7034C3.31878 17.9025 3.33641 18.1857 3.51472 18.364L3.86827 18.0104ZM5.22839 16.2617L5.62307 16.5687C5.75234 16.4025 5.76363 16.1731 5.65131 15.995L5.22839 16.2617ZM4.19754 13.7747L4.68519 13.6642C4.63867 13.4589 4.46849 13.3047 4.25955 13.2786L4.19754 13.7747ZM2 13.5H1.5C1.5 13.7522 1.68777 13.9649 1.93798 13.9961L2 13.5ZM2 10.5L1.93798 10.0039C1.68777 10.0351 1.5 10.2478 1.5 10.5H2ZM4.19754 10.2253L4.25955 10.7214C4.46849 10.6953 4.63867 10.5411 4.68519 10.3358L4.19754 10.2253ZM5.22839 7.73831L5.65131 8.00503C5.76363 7.82693 5.75234 7.59755 5.62307 7.43134L5.22839 7.73831ZM3.86827 5.98959L3.51472 5.63603C3.33641 5.81434 3.31878 6.09751 3.47359 6.29656L3.86827 5.98959ZM5.98959 3.86827L6.29656 3.47359C6.09752 3.31878 5.81434 3.33641 5.63604 3.51471L5.98959 3.86827ZM7.73832 5.22839L7.43135 5.62306C7.59755 5.75233 7.82694 5.76363 8.00504 5.6513L7.73832 5.22839ZM10.2253 4.19754L10.3358 4.68519C10.5411 4.63867 10.6953 4.46849 10.7214 4.25955L10.2253 4.19754ZM13.5 1.5H10.5V2.5H13.5V1.5ZM14.2708 4.13552L13.9961 1.93798L13.0039 2.06202L13.2786 4.25955L14.2708 4.13552ZM16.5284 4.80547C15.7279 4.30059 14.8369 3.92545 13.8851 3.70989L13.6642 4.68519C14.503 4.87517 15.2886 5.20583 15.995 5.6513L16.5284 4.80547ZM16.5687 5.62306L18.3174 4.26294L17.7034 3.47359L15.9547 4.83371L16.5687 5.62306ZM17.6569 4.22182L19.7782 6.34314L20.4853 5.63603L18.364 3.51471L17.6569 4.22182ZM19.7371 5.68261L18.3769 7.43134L19.1663 8.04528L20.5264 6.29655L19.7371 5.68261ZM20.2901 10.1149C20.0746 9.16313 19.6994 8.27213 19.1945 7.47158L18.3487 8.00503C18.7942 8.71138 19.1248 9.49695 19.3148 10.3358L20.2901 10.1149ZM22.062 10.0039L19.8645 9.72917L19.7404 10.7214L21.938 10.9961L22.062 10.0039ZM22.5 13.5V10.5H21.5V13.5H22.5ZM19.8645 14.2708L22.062 13.9961L21.938 13.0039L19.7404 13.2786L19.8645 14.2708ZM19.1945 16.5284C19.6994 15.7279 20.0746 14.8369 20.2901 13.8851L19.3148 13.6642C19.1248 14.503 18.7942 15.2886 18.3487 15.995L19.1945 16.5284ZM20.5264 17.7034L19.1663 15.9547L18.3769 16.5687L19.7371 18.3174L20.5264 17.7034ZM18.364 20.4853L20.4853 18.364L19.7782 17.6569L17.6569 19.7782L18.364 20.4853ZM15.9547 19.1663L17.7034 20.5264L18.3174 19.7371L16.5687 18.3769L15.9547 19.1663ZM13.8851 20.2901C14.8369 20.0746 15.7279 19.6994 16.5284 19.1945L15.995 18.3487C15.2886 18.7942 14.503 19.1248 13.6642 19.3148L13.8851 20.2901ZM13.9961 22.062L14.2708 19.8645L13.2786 19.7404L13.0039 21.938L13.9961 22.062ZM10.5 22.5H13.5V21.5H10.5V22.5ZM9.72917 19.8645L10.0039 22.062L10.9961 21.938L10.7214 19.7404L9.72917 19.8645ZM7.4716 19.1945C8.27214 19.6994 9.16314 20.0746 10.1149 20.2901L10.3358 19.3148C9.49696 19.1248 8.71139 18.7942 8.00504 18.3487L7.4716 19.1945ZM6.29656 20.5264L8.04529 19.1663L7.43135 18.3769L5.68262 19.7371L6.29656 20.5264ZM3.51472 18.364L5.63604 20.4853L6.34315 19.7782L4.22183 17.6569L3.51472 18.364ZM4.83372 15.9547L3.4736 17.7034L4.26295 18.3174L5.62307 16.5687L4.83372 15.9547ZM3.70989 13.8851C3.92545 14.8369 4.30059 15.7279 4.80547 16.5284L5.65131 15.995C5.20584 15.2886 4.87517 14.503 4.68519 13.6642L3.70989 13.8851ZM1.93798 13.9961L4.13552 14.2708L4.25955 13.2786L2.06202 13.0039L1.93798 13.9961ZM1.5 10.5V13.5H2.5V10.5H1.5ZM4.13552 9.72917L1.93798 10.0039L2.06202 10.9961L4.25955 10.7214L4.13552 9.72917ZM4.80547 7.47159C4.30059 8.27213 3.92545 9.16313 3.70989 10.1149L4.68519 10.3358C4.87517 9.49696 5.20583 8.71138 5.65131 8.00503L4.80547 7.47159ZM3.47359 6.29656L4.83371 8.04528L5.62307 7.43134L4.26295 5.68262L3.47359 6.29656ZM5.63604 3.51471L3.51472 5.63603L4.22182 6.34314L6.34314 4.22182L5.63604 3.51471ZM8.04529 4.83371L6.29656 3.47359L5.68262 4.26294L7.43135 5.62306L8.04529 4.83371ZM10.1149 3.70989C9.16313 3.92545 8.27214 4.30059 7.4716 4.80547L8.00504 5.6513C8.71139 5.20583 9.49696 4.87517 10.3358 4.68519L10.1149 3.70989ZM10.0039 1.93798L9.72917 4.13552L10.7214 4.25955L10.9961 2.06202L10.0039 1.93798Z"/><circle cx="12" cy="12" r="4" stroke-linejoin="round"/></symbol><symbol viewBox="0 0 19 17" id="slick-arrow-left" xmlns="http://www.w3.org/2000/svg"><path d="M18 8.08333H1M1 8.08333L8.08333 15.1667M1 8.08333L8.08333 1" stroke-width="2" stroke-linecap="round" stroke-linejoin="round"/></symbol><symbol viewBox="0 0 19 17" id="slick-arrow-right" xmlns="http://www.w3.org/2000/svg"><path d="M1 8.08341L18 8.08341M18 8.08341L10.9167 1.00008M18 8.08341L10.9167 15.1667" stroke-width="2" stroke-linecap="round" stroke-linejoin="round"/></symbol></svg>