<?xml version="1.0" encoding="utf-8"?><svg viewBox="0 0 800 800" xmlns="http://www.w3.org/2000/svg" xmlns:xlink="http://www.w3.org/1999/xlink"><style>:root>svg{display:none}:root>svg:target{display:block}</style><svg viewBox="0 0 215 215" id="Telegram" xmlns="http://www.w3.org/2000/svg"><defs><linearGradient id="pa" y1="107.5" x2="215" y2="107.5" gradientUnits="userSpaceOnUse"><stop offset="0" stop-color="#2aabee"/><stop offset="1" stop-color="#229ed9"/></linearGradient></defs><circle cx="107.5" cy="107.5" r="107.5" style="fill:url(#pa)"/><path data-name="Telegram" d="M603.31 105.65q46.89-20.43 62.53-26.94c29.78-12.38 36-14.53 40-14.61a7.09 7.09 0 0 1 4.16 1.25 4.49 4.49 0 0 1 1.53 2.9 19.25 19.25 0 0 1 .18 4.23c-1.61 17-8.6 58.09-12.15 77.08-1.5 8-4.46 10.73-7.33 11-6.22.57-11-4.12-17-8.07-9.44-6.19-14.77-10-23.93-16.08-10.59-7-3.72-10.81 2.31-17.07 1.58-1.64 29-26.6 29.54-28.86a2.18 2.18 0 0 0-.5-1.9 2.49 2.49 0 0 0-2.22-.21q-1.41.31-45.22 29.89-6.42 4.41-11.63 4.3c-3.83-.09-11.19-2.17-16.67-4-6.71-2.18-12-3.33-11.58-7q.37-2.88 7.98-5.91Z" transform="translate(-554)" style="fill:#fff;fill-rule:evenodd"/></svg><svg viewBox="0 0 215 215" id="VK" xmlns="http://www.w3.org/2000/svg"><circle cx="107.5" cy="107.5" r="107.5" style="fill:#07f"/><path data-name="VK" d="M111.44 147.14C69.76 147.14 46 118.56 45 71h20.87c.69 34.9 16.08 49.69 28.27 52.74V71h19.67v30.1c12-1.29 24.69-15 28.95-30.1h19.67c-3.28 18.59-17 32.31-26.75 37.95A60.16 60.16 0 0 1 167 147.14h-21.64c-4.65-14.48-16.24-25.68-31.55-27.2v27.2Z" style="fill:#fff"/></svg><svg id="Viber" viewBox="0 0 215 215" xmlns="http://www.w3.org/2000/svg"><defs><style>.qcls-2{fill:#fff}</style></defs><g id="qViber"><circle id="qBackground" cx="107.5" cy="107.5" r="107.5" style="fill:#7360f2"/><g id="qViber-2" data-name="Viber"><path class="qcls-2" d="M148.37 343.83c-2.75-2.55-13.9-10.64-38.73-10.75 0 0-29.28-1.77-43.55 11.33-8 7.94-10.74 19.57-11 34s-.68 41.43 25.37 48.76v11.18s-.17 4.52 2.81 5.45c3.6 1.11 5.72-2.33 9.16-6 1.89-2 4.5-5 6.46-7.31 17.82 1.5 31.51-1.93 33.07-2.44 3.6-1.16 23.95-3.77 27.26-30.79 3.38-27.88-1.69-45.49-10.85-53.43Zm3 51.4c-2.79 22.55-19.3 24-22.34 24.95a92.89 92.89 0 0 1-28.46 2.42s-11.25 13.6-14.77 17.14a1.89 1.89 0 0 1-1.63.66c-.6-.15-.77-.86-.76-1.91 0-1.5.09-18.58.09-18.58-22-6.12-20.74-29.11-20.49-41.15s2.51-21.91 9.23-28.54c12.07-10.94 36.94-9.3 36.94-9.3 21 .09 31.07 6.41 33.4 8.53 7.75 6.64 11.7 22.51 8.81 45.77Z" transform="translate(0 -277)"/><path id="qViber-3" data-name="Viber" class="qcls-2" d="M119.86 379.17a1.4 1.4 0 0 1-1.4-1.33c-.24-4.77-2.48-7.11-7.06-7.35a1.4 1.4 0 0 1 .14-2.8c6 .32 9.41 3.78 9.72 10a1.41 1.41 0 0 1-1.33 1.47Z" transform="translate(0 -277)"/><path id="qViber-4" data-name="Viber" class="qcls-2" d="M127.06 381.59a1.41 1.41 0 0 1-1.37-1.44 16.27 16.27 0 0 0-4.19-11.88c-2.92-3.19-6.92-4.92-12.23-5.31a1.4 1.4 0 1 1 .2-2.8c6 .43 10.72 2.53 14.1 6.22a19.13 19.13 0 0 1 4.93 13.83 1.41 1.41 0 0 1-1.44 1.38Z" transform="translate(0 -277)"/><path id="qViber-5" data-name="Viber" class="qcls-2" d="M134.44 384.47a1.4 1.4 0 0 1-1.4-1.39c-.07-8.47-2.61-15.21-7.56-20a26 26 0 0 0-18.63-7.36 1.41 1.41 0 0 1 0-2.81 28.71 28.71 0 0 1 20.59 8.09c5.51 5.37 8.33 12.78 8.4 22a1.39 1.39 0 0 1-1.39 1.41Z" transform="translate(0 -277)"/><path id="qViber-6" data-name="Viber" class="qcls-2" d="M111.75 396.58a3.86 3.86 0 0 0 3-1.15l2.08-2.6a4.53 4.53 0 0 1 5.77-.8 59 59 0 0 1 5.15 3.28c1.56 1.16 4.77 3.83 4.78 3.83a4 4 0 0 1 .85 5.19 21.69 21.69 0 0 1-4.32 5.31 8.55 8.55 0 0 1-4.38 2.12 2.76 2.76 0 0 1-.64 0 5.88 5.88 0 0 1-1.86-.29v-.07c-2.21-.62-5.9-2.18-12-5.57a70.72 70.72 0 0 1-10.18-6.57 51.18 51.18 0 0 1-4.55-4l-.16-.15-.15-.16-.15-.15-.16-.15a54.36 54.36 0 0 1-4-4.55 71.67 71.67 0 0 1-6.74-10.1c-3.39-6.14-5-9.82-5.57-12h-.07a5.87 5.87 0 0 1-.28-1.86 2.72 2.72 0 0 1 0-.64 8.7 8.7 0 0 1 2.15-4.5 21.65 21.65 0 0 1 5.31-4.32 4 4 0 0 1 5.18.84s2.68 3.22 3.83 4.78 2.36 3.33 3.36 5.1a4.55 4.55 0 0 1-.8 5.77l-2.61 2.07a3.86 3.86 0 0 0-1.14 3s3.87 14.65 18.3 18.34Z" transform="translate(0 -277)"/></g></g></svg><svg viewBox="0 0 215 215" id="WhatsApp" xmlns="http://www.w3.org/2000/svg"><circle cx="107.5" cy="107.5" r="107.5" style="fill:#25d366"/><g data-name="WhatsApp"><path data-name="WhatsApp" d="m885.91 161 7.55-27.56a53.18 53.18 0 1 1 46.09 26.64 53.18 53.18 0 0 1-25.41-6.48Zm29.5-17 1.62 1a44.21 44.21 0 0 0 22.5 6.17 44.22 44.22 0 1 0-37.45-20.72l1 1.67-4.47 16.31Z" transform="translate(-831)" style="fill:#fff"/><path data-name="WhatsApp" d="M966.34 119.54c-.33-.56-1.22-.89-2.55-1.55s-7.86-3.88-9.08-4.33-2.1-.66-3 .67-3.43 4.32-4.2 5.21-1.56 1-2.88.33a36.31 36.31 0 0 1-10.63-6.59 40 40 0 0 1-7.39-9.21c-.78-1.33-.09-2 .58-2.71s1.33-1.56 2-2.33a8.84 8.84 0 0 0 1.33-2.22 2.47 2.47 0 0 0-.11-2.33c-.33-.66-3-7.2-4.1-9.86s-2.17-2.24-3-2.29-1.66 0-2.54 0a4.89 4.89 0 0 0-3.6 1.67 14.91 14.91 0 0 0-4.65 11c0 6.54 4.76 12.86 5.43 13.75s9.37 14.31 22.7 20.06a75.55 75.55 0 0 0 7.58 2.8 18.27 18.27 0 0 0 8.37.53c2.55-.38 7.86-3.22 9-6.32s1.07-5.73.74-6.28Z" transform="translate(-831)" style="fill-rule:evenodd;fill:#fff"/></g></svg><svg fill="none" viewBox="0 0 19 17" id="arrow-right" xmlns="http://www.w3.org/2000/svg"><path d="M1 8.083h17m0 0L10.917 1M18 8.083l-7.083 7.084" stroke="#212121" stroke-width="2" stroke-linecap="round" stroke-linejoin="round"/></svg><svg fill="none" viewBox="0 0 7 12" id="arrow-sub" xmlns="http://www.w3.org/2000/svg"><path d="m1 1 5 5-5 5" stroke="#000" stroke-linecap="round" stroke-linejoin="round"/></svg><svg viewBox="0 0 24 24" fill="none" id="burger" xmlns="http://www.w3.org/2000/svg"><path fill="#fff" d="M0 0h24v24H0z"/><path d="M6 12h12M6 15.5h12M6 8.5h12" stroke="#000" stroke-linecap="round" stroke-linejoin="round"/></svg><svg fill="none" viewBox="0 0 22 22" id="clock" xmlns="http://www.w3.org/2000/svg"><path d="M11 21c5.523 0 10-4.477 10-10S16.523 1 11 1 1 5.477 1 11s4.477 10 10 10Z" stroke="#000" stroke-linecap="round" stroke-linejoin="round"/><path d="M11 4.333V11l-5 5" stroke="#000" stroke-linecap="round" stroke-linejoin="round"/></svg><svg viewBox="0 0 24 24" fill="none" id="heart" xmlns="http://www.w3.org/2000/svg"><path fill="#fff" d="M0 0h24v24H0z"/><path d="M21 9c0 3.754-5.284 8.976-8.414 11.533a.955.955 0 0 1-1.187.02C8.267 18.152 3 13.122 3 9c0-7 9-7 9-1 0-6 9-6 9 1Z" stroke="#000" stroke-linecap="round" stroke-linejoin="round"/></svg><svg fill="none" viewBox="0 0 12 17" id="location" xmlns="http://www.w3.org/2000/svg"><path d="M11.24 6.12c0 4.05-3.204 8.1-4.543 9.615a.761.761 0 0 1-1.155 0C4.204 14.22 1 10.17 1 6.12 1 4.413 2.28 1 6.12 1s5.12 3.413 5.12 5.12Z" stroke="#000" stroke-linejoin="round"/><path d="M6.12 7.826a1.707 1.707 0 1 0 0-3.413 1.707 1.707 0 0 0 0 3.413Z" stroke="#000" stroke-linejoin="round"/></svg><svg fill="none" viewBox="0 0 22 16" id="message" xmlns="http://www.w3.org/2000/svg"><path d="M1 14.333V2.111C1 1.497 1.497 1 2.111 1H19.89C20.503 1 21 1.497 21 2.111v12.222c0 .614-.497 1.111-1.111 1.111H2.11A1.111 1.111 0 0 1 1 14.334Z" stroke="#000" stroke-linejoin="round"/><path d="m1 1.555 10 6.667 10-6.667" stroke="#000" stroke-linejoin="round"/></svg><svg fill="none" viewBox="0 0 17 17" id="phone" xmlns="http://www.w3.org/2000/svg"><path d="M1.08 4.62C.584 7 2.459 9.834 4.813 12.188c2.354 2.354 5.187 4.229 7.568 3.731 1.957-.409 2.957-1.451 3.52-2.34.193-.306.095-.705-.196-.921l-2.754-2.055a.746.746 0 0 0-.974.07l-1.462 1.462S9.093 11.673 7.21 9.79C5.327 7.907 4.865 6.486 4.865 6.486l1.462-1.462a.746.746 0 0 0 .07-.974L4.342 1.295c-.217-.29-.615-.388-.921-.194-.889.562-1.932 1.562-2.34 3.52Z" stroke="#000" stroke-linecap="round" stroke-linejoin="round"/></svg><svg viewBox="0 0 24 24" fill="none" id="profile" xmlns="http://www.w3.org/2000/svg"><g clip-path="url(#ia)"><path fill="#fff" d="M0 0h24v24H0z"/><g filter="url(#ib)"><path d="m14.336 12.347-.26-.428a.5.5 0 0 0 .115.906l.145-.478Zm-4.673 0 .146.478a.5.5 0 0 0 .114-.905l-.26.427Zm-5.601 6.655-.497-.062.497.062Zm15.876 0 .497-.062-.497.062ZM16 8.5c0 1.448-.77 2.717-1.924 3.42l.52.854A4.997 4.997 0 0 0 17 8.5h-1Zm-4-4a4 4 0 0 1 4 4h1a5 5 0 0 0-5-5v1Zm-4 4a4 4 0 0 1 4-4v-1a5 5 0 0 0-5 5h1Zm1.923 3.42A3.997 3.997 0 0 1 8 8.5H7c0 1.811.963 3.397 2.403 4.274l.52-.854Zm-.405-.052a8.509 8.509 0 0 0-5.953 7.072l.993.124a7.508 7.508 0 0 1 5.251-6.24l-.291-.956ZM3.565 18.94c-.11.888.626 1.56 1.435 1.56v-1c-.295 0-.468-.228-.442-.436l-.993-.124ZM5 20.5h14v-1H5v1Zm14 0c.81 0 1.545-.672 1.434-1.56l-.992.124c.026.208-.147.436-.442.436v1Zm1.434-1.56a8.509 8.509 0 0 0-5.952-7.072l-.291.957a7.508 7.508 0 0 1 5.251 6.239l.992-.124Z" fill="#000"/></g></g><defs><clipPath id="ia"><path fill="#fff" d="M0 0h24v24H0z"/></clipPath><filter id="ib" x="2.554" y="3.5" width="18.891" height="19" filterUnits="userSpaceOnUse" color-interpolation-filters="sRGB"><feFlood flood-opacity="0" result="BackgroundImageFix"/><feColorMatrix in="SourceAlpha" values="0 0 0 0 0 0 0 0 0 0 0 0 0 0 0 0 0 0 127 0" result="hardAlpha"/><feOffset dy="1"/><feGaussianBlur stdDeviation=".5"/><feColorMatrix values="0 0 0 0 0 0 0 0 0 0 0 0 0 0 0 0 0 0 0.1 0"/><feBlend in2="BackgroundImageFix" result="effect1_dropShadow_15_82"/><feBlend in="SourceGraphic" in2="effect1_dropShadow_15_82" result="shape"/></filter></defs></svg><svg viewBox="0 0 24 24" fill="none" id="search" xmlns="http://www.w3.org/2000/svg"><g clip-path="url(#ja)"><path fill="#fff" d="M0 0h24v24H0z"/><circle cx="10.5" cy="10.5" r="6.5" stroke="#000" stroke-linejoin="round"/><path d="M19.646 20.354a.5.5 0 0 0 .708-.708l-.708.708Zm.708-.708-5-5-.708.708 5 5 .708-.708Z" fill="#000"/></g><defs><clipPath id="ja"><path fill="#fff" d="M0 0h24v24H0z"/></clipPath></defs></svg><svg viewBox="0 0 24 24" fill="none" id="selection" xmlns="http://www.w3.org/2000/svg"><path fill="#fff" d="M0 0h24v24H0z"/><path d="M7 13.454 9.667 16 17 9" stroke="#000" stroke-linecap="round" stroke-linejoin="round"/><rect x="4" y="4" width="16" height="16" rx="2" stroke="#000" stroke-linecap="round" stroke-linejoin="round"/></svg><svg viewBox="0 0 24 24" fill="none" id="selection-circle" xmlns="http://www.w3.org/2000/svg"><path fill="#fff" d="M0 0h24v24H0z"/><path d="m7 13.454 1.976 1.887a1 1 0 0 0 1.381 0L17 9" stroke="#000" stroke-linecap="round" stroke-linejoin="round"/><circle cx="12" cy="12" r="9" stroke="#000" stroke-linecap="round" stroke-linejoin="round"/></svg><svg viewBox="0 0 24 24" fill="none" id="settings" xmlns="http://www.w3.org/2000/svg"><path fill="#fff" d="M0 0h24v24H0z"/><path d="m13.5 2 .496-.062A.5.5 0 0 0 13.5 1.5V2Zm-3 0v-.5a.5.5 0 0 0-.496.438L10.5 2Zm3.275 2.198-.496.062a.5.5 0 0 0 .385.425l.11-.487Zm2.487 1.03-.267.423a.5.5 0 0 0 .574-.028l-.307-.395Zm1.748-1.36.354-.353a.5.5 0 0 0-.66-.041l.306.394Zm2.122 2.122.394.307a.5.5 0 0 0-.04-.661l-.354.354Zm-1.36 1.748-.395-.307a.5.5 0 0 0-.028.574l.423-.267Zm1.03 2.487-.487.11a.5.5 0 0 0 .425.386l.063-.496ZM22 10.5h.5a.5.5 0 0 0-.438-.496L22 10.5Zm0 3 .062.496a.5.5 0 0 0 .438-.496H22Zm-2.198.275-.062-.496a.5.5 0 0 0-.425.385l.487.11Zm-1.03 2.487-.423-.267a.5.5 0 0 0 .028.574l.395-.307Zm1.36 1.748.353.354a.5.5 0 0 0 .041-.66l-.394.306Zm-2.122 2.122-.307.394a.5.5 0 0 0 .661-.04l-.354-.354Zm-1.748-1.36.307-.395a.5.5 0 0 0-.574-.028l.267.423Zm-2.487 1.03-.11-.487a.5.5 0 0 0-.386.425l.496.063ZM13.5 22v.5a.5.5 0 0 0 .496-.438L13.5 22Zm-3 0-.496.062a.5.5 0 0 0 .496.438V22Zm-.275-2.198.496-.062a.5.5 0 0 0-.385-.425l-.11.487Zm-2.487-1.03.267-.423a.5.5 0 0 0-.574.028l.307.395Zm-1.748 1.36-.354.353a.5.5 0 0 0 .66.041l-.306-.394ZM3.868 18.01l-.394-.307a.5.5 0 0 0 .04.661l.354-.354Zm1.36-1.748.395.307a.5.5 0 0 0 .028-.574l-.423.267Zm-1.03-2.487.487-.11a.5.5 0 0 0-.425-.386l-.062.496ZM2 13.5h-.5a.5.5 0 0 0 .438.496L2 13.5Zm0-3-.062-.496a.5.5 0 0 0-.438.496H2Zm2.198-.275.062.496a.5.5 0 0 0 .425-.385l-.487-.11Zm1.03-2.487.423.267a.5.5 0 0 0-.028-.574l-.395.307ZM3.868 5.99l-.353-.354a.5.5 0 0 0-.041.66l.394-.306ZM5.99 3.868l.307-.394a.5.5 0 0 0-.661.04l.354.354Zm1.748 1.36-.307.395a.5.5 0 0 0 .574.028l-.267-.423Zm2.487-1.03.11.487a.5.5 0 0 0 .386-.425l-.496-.062ZM13.5 1.5h-3v1h3v-1Zm.77 2.636-.274-2.198-.992.124.275 2.198.992-.124Zm2.258.67a8.453 8.453 0 0 0-2.643-1.096l-.22.975c.838.19 1.624.52 2.33.966l.533-.846Zm.04.817 1.75-1.36-.615-.79-1.748 1.36.614.79Zm1.089-1.401 2.121 2.121.707-.707-2.121-2.121-.707.707Zm2.08 1.46-1.36 1.75.79.613 1.36-1.748-.79-.614Zm.553 4.433a8.452 8.452 0 0 0-1.095-2.643l-.846.533c.445.706.776 1.492.966 2.33l.975-.22Zm1.772-.111-2.198-.275-.124.992 2.198.275.124-.992ZM22.5 13.5v-3h-1v3h1Zm-2.636.77 2.198-.274-.124-.992-2.198.275.125.992Zm-.67 2.258a8.45 8.45 0 0 0 1.096-2.643l-.975-.22a7.454 7.454 0 0 1-.966 2.33l.846.533Zm1.332 1.175-1.36-1.748-.79.614 1.361 1.748.79-.614Zm-2.162 2.782 2.121-2.121-.707-.707-2.121 2.121.707.707Zm-2.41-1.319 1.75 1.36.613-.789-1.748-1.36-.614.79Zm-2.069 1.124a8.45 8.45 0 0 0 2.643-1.095l-.533-.846a7.454 7.454 0 0 1-2.33.966l.22.975Zm.111 1.772.275-2.198-.992-.124-.275 2.198.992.124ZM10.5 22.5h3v-1h-3v1Zm-.77-2.636.274 2.198.992-.124-.275-2.198-.992.125Zm-2.258-.67c.8.505 1.691.88 2.643 1.096l.22-.975a7.453 7.453 0 0 1-2.33-.966l-.533.846Zm-1.175 1.332 1.748-1.36-.614-.79-1.748 1.361.614.79Zm-2.782-2.162 2.121 2.121.707-.707-2.121-2.121-.707.707Zm1.319-2.41-1.36 1.75.789.613 1.36-1.748-.79-.614ZM3.71 13.886c.215.952.59 1.843 1.095 2.643l.846-.533a7.454 7.454 0 0 1-.966-2.33l-.975.22Zm-1.772.111 2.198.275.124-.992-2.198-.275-.124.992ZM1.5 10.5v3h1v-3h-1Zm2.636-.77-2.198.274.124.992 2.198-.275-.124-.992Zm.67-2.258c-.505.8-.88 1.691-1.096 2.643l.975.22c.19-.838.52-1.624.966-2.33l-.846-.533ZM3.473 6.297l1.36 1.748.79-.614-1.361-1.748-.79.614Zm2.162-2.782L3.515 5.636l.707.707 2.121-2.121-.707-.707Zm2.41 1.319-1.75-1.36-.613.789 1.748 1.36.614-.79Zm2.069-1.124a8.453 8.453 0 0 0-2.643 1.095l.533.846a7.453 7.453 0 0 1 2.33-.966l-.22-.975Zm-.111-1.772-.275 2.198.992.124.275-2.198-.992-.124Z" fill="#000"/><circle cx="12" cy="12" r="4" stroke="#000" stroke-linejoin="round"/></svg><svg fill="none" viewBox="0 0 19 17" id="slick-arrow-left" xmlns="http://www.w3.org/2000/svg"><path d="M18 8.083H1m0 0 7.083 7.084M1 8.083 8.083 1" stroke="#212121" stroke-width="2" stroke-linecap="round" stroke-linejoin="round"/></svg><svg fill="none" viewBox="0 0 19 17" id="slick-arrow-right" xmlns="http://www.w3.org/2000/svg"><path d="M1 8.083h17m0 0L10.917 1M18 8.083l-7.083 7.084" stroke="#212121" stroke-width="2" stroke-linecap="round" stroke-linejoin="round"/></svg></svg>